HIERARCHY
ROOT hip
{
  OFFSET 0 0 0
  CHANNELS 6 Xposition Yposition Zposition Zrotation Yrotation Xrotation
  JOINT abdomen
  {
    OFFSET 0 20.6881 -0.73152
    CHANNELS 3 Zrotation Xrotation Yrotation
    JOINT chest
    {
      OFFSET 0 11.7043 -0.48768
      CHANNELS 3 Zrotation Xrotation Yrotation
      JOINT neck
      {
        OFFSET 0 22.1894 -2.19456
        CHANNELS 3 Zrotation Xrotation Yrotation
        JOINT head
        {
          OFFSET -0.24384 7.07133 1.2192
          CHANNELS 3 Zrotation Xrotation Yrotation
          JOINT leftEye
          {
            OFFSET 4.14528 8.04674 8.04672
            CHANNELS 3 Zrotation Xrotation Yrotation
            End Site
            {
              OFFSET 1 0 0
            }
          }
          JOINT rightEye
          {
            OFFSET -3.6576 8.04674 8.04672
            CHANNELS 3 Zrotation Xrotation Yrotation
            End Site
            {
              OFFSET 1 0 0
            }
          }
        }
      }
      JOINT rCollar
      {
        OFFSET -2.68224 19.2634 -4.8768
        CHANNELS 3 Zrotation Xrotation Yrotation
        JOINT rShldr
        {
          OFFSET -8.77824 -1.95073 1.46304
          CHANNELS 3 Zrotation Xrotation Yrotation
          JOINT rForeArm
          {
            OFFSET -28.1742 -1.7115 0.48768
            CHANNELS 3 Zrotation Xrotation Yrotation
            JOINT rHand
            {
              OFFSET -22.5879 0.773209 7.07136
              CHANNELS 3 Zrotation Xrotation Yrotation
              JOINT rThumb1
              {
                OFFSET -1.2192 -0.487915 3.41376
                CHANNELS 3 Zrotation Xrotation Yrotation
                JOINT rThumb2
                {
                  OFFSET -3.37035 -0.52449 3.41376
                  CHANNELS 3 Zrotation Xrotation Yrotation
                  End Site
                  {
                    OFFSET -1.78271 -1.18214 1.43049
                  }
                }
              }
              JOINT rIndex1
              {
                OFFSET -7.75947 0.938293 5.60832
                CHANNELS 3 Zrotation Xrotation Yrotation
                JOINT rIndex2
                {
                  OFFSET -2.54057 -0.884171 1.56538
                  CHANNELS 3 Zrotation Xrotation Yrotation
                  End Site
                  {
                    OFFSET -1.62519 -0.234802 1.16502
                  }
                }
              }
              JOINT rMid1
              {
                OFFSET -8.24714 1.18213 3.41376
                CHANNELS 3 Zrotation Xrotation Yrotation
                JOINT rMid2
                {
                  OFFSET -3.10165 -0.590103 1.0647
                  CHANNELS 3 Zrotation Xrotation Yrotation
                  End Site
                  {
                    OFFSET -2.48547 -0.328903 0.83742
                  }
                }
              }
              JOINT rRing1
              {
                OFFSET -8.82822 0.546677 1.51678
                CHANNELS 3 Zrotation Xrotation Yrotation
                JOINT rRing2
                {
                  OFFSET -2.60934 -0.819778 -0.0198488
                  CHANNELS 3 Zrotation Xrotation Yrotation
                  End Site
                  {
                    OFFSET -2.33842 -0.294052 0.168128
                  }
                }
              }
              JOINT rPinky1
              {
                OFFSET -8.27202 -0.0477905 -0.4584
                CHANNELS 3 Zrotation Xrotation Yrotation
                JOINT rPinky2
                {
                  OFFSET -1.82734 -0.647385 -0.700984
                  CHANNELS 3 Zrotation Xrotation Yrotation
                  End Site
                  {
                    OFFSET -1.69225 -0.51767 -0.607171
                  }
                }
              }
            }
          }
        }
      }
      JOINT lCollar
      {
        OFFSET 2.68224 19.2634 -4.8768
        CHANNELS 3 Zrotation Xrotation Yrotation
        JOINT lShldr
        {
          OFFSET 8.77824 -1.95073 1.46304
          CHANNELS 3 Zrotation Xrotation Yrotation
          JOINT lForeArm
          {
            OFFSET 28.1742 -1.7115 0.48768
            CHANNELS 3 Zrotation Xrotation Yrotation
            JOINT lHand
            {
              OFFSET 22.5879 0.773209 7.07136
              CHANNELS 3 Zrotation Xrotation Yrotation
              JOINT lThumb1
              {
                OFFSET 1.2192 -0.487915 3.41376
                CHANNELS 3 Zrotation Xrotation Yrotation
                JOINT lThumb2
                {
                  OFFSET 3.37035 -0.52449 3.41376
                  CHANNELS 3 Zrotation Xrotation Yrotation
                  End Site
                  {
                    OFFSET 1.78271 -1.18214 1.43049
                  }
                }
              }
              JOINT lIndex1
              {
                OFFSET 7.75947 0.938293 5.60832
                CHANNELS 3 Zrotation Xrotation Yrotation
                JOINT lIndex2
                {
                  OFFSET 2.54057 -0.884171 1.56538
                  CHANNELS 3 Zrotation Xrotation Yrotation
                  End Site
                  {
                    OFFSET 1.62519 -0.234802 1.16502
                  }
                }
              }
              JOINT lMid1
              {
                OFFSET 8.24714 1.18213 3.41376
                CHANNELS 3 Zrotation Xrotation Yrotation
                JOINT lMid2
                {
                  OFFSET 3.10165 -0.590103 1.0647
                  CHANNELS 3 Zrotation Xrotation Yrotation
                  End Site
                  {
                    OFFSET 2.48547 -0.328903 0.83742
                  }
                }
              }
              JOINT lRing1
              {
                OFFSET 8.82822 0.546677 1.51678
                CHANNELS 3 Zrotation Xrotation Yrotation
                JOINT lRing2
                {
                  OFFSET 2.60934 -0.819778 -0.0198488
                  CHANNELS 3 Zrotation Xrotation Yrotation
                  End Site
                  {
                    OFFSET 2.33842 -0.294052 0.168128
                  }
                }
              }
              JOINT lPinky1
              {
                OFFSET 8.27202 -0.0477905 -0.4584
                CHANNELS 3 Zrotation Xrotation Yrotation
                JOINT lPinky2
                {
                  OFFSET 1.82734 -0.647385 -0.700984
                  CHANNELS 3 Zrotation Xrotation Yrotation
                  End Site
                  {
                    OFFSET 1.69225 -0.51767 -0.607171
                  }
                }
              }
            }
          }
        }
      }
    }
  }
  JOINT rButtock
  {
    OFFSET -8.77824 4.35084 1.2192
    CHANNELS 3 Zrotation Xrotation Yrotation
    JOINT rThigh
    {
      OFFSET 0 -1.70687 -2.19456
      CHANNELS 3 Zrotation Xrotation Yrotation
      JOINT rShin
      {
        OFFSET 0 -36.8199 0.73152
        CHANNELS 3 Zrotation Xrotation Yrotation
        JOINT rFoot
        {
          OFFSET 0.73152 -45.1104 -5.12064
          CHANNELS 3 Zrotation Xrotation Yrotation
          End Site
          {
            OFFSET -1.1221 -3.69964 12.103
          }
        }
      }
    }
  }
  JOINT lButtock
  {
    OFFSET 8.77824 4.35084 1.2192
    CHANNELS 3 Zrotation Xrotation Yrotation
    JOINT lThigh
    {
      OFFSET 0 -1.70687 -2.19456
      CHANNELS 3 Zrotation Xrotation Yrotation
      JOINT lShin
      {
        OFFSET 0 -36.8199 0.73152
        CHANNELS 3 Zrotation Xrotation Yrotation
        JOINT lFoot
        {
          OFFSET -0.73152 -45.1104 -5.12064
          CHANNELS 3 Zrotation Xrotation Yrotation
          End Site
          {
            OFFSET 1.1221 -3.69964 12.103
          }
        }
      }
    }
  }
}
MOTION
Frames:	9
Frame Time:	0.00833333
-82.6131 84.7178 -141.85 0.0 0.0 0.0 -0.462529 -0.00207377 -0.0132009 -0.127532 -0.00315853 -0.0220953 1.119e-14 -7.95139e-16 -1.18028e-16 3.33523e-14 3.18055e-15 -3.38555e-16 -0.0 0.0 0.0 -0.0 0.0 0.0 5.56486e-15 6.21202e-18 1.49089e-16 1.18079e-13 2.98177e-16 1.98785e-16 2.00549e-12 -5.9536e-13 -2.8625e-14 2.29616e-11 6.20457e-13 -2.00375e-13 5.41582e-11 4.97415e-14 -4.67542e-13 9.35167e-11 8.26944e-14 -8.21378e-13 5.41652e-11 5.12864e-14 -4.83444e-13 7.73091 5.47488 0.417314 5.41577e-11 4.96962e-14 -4.67542e-13 2.90554 0.965183 0.102902 5.41627e-11 5.00937e-14 -4.71517e-13 10.2786 0.731801 0.0259123 5.41571e-11 4.8901e-14 -4.6118e-13 2.22167 -0.733487 -0.20892 5.46806e-15 5.04727e-18 -2.48481e-16 1.14169e-13 2.04997e-16 -1.39149e-15 2.00703e-12 6.04107e-13 -3.81667e-14 2.29556e-11 -5.78066e-13 -1.68569e-13 5.41558e-11 5.06652e-14 -4.64361e-13 9.35385e-11 8.26944e-14 -8.015e-13 5.41497e-11 5.28767e-14 -4.54819e-13 -7.73091 5.47488 -0.417314 5.41562e-11 5.08889e-14 -4.6118e-13 -2.90554 0.965183 -0.102902 5.41485e-11 5.08889e-14 -4.65951e-13 -10.2786 0.731801 -0.0259123 5.41617e-11 5.00937e-14 -4.83444e-13 -2.22167 -0.733487 0.20892 -2.03217e-16 0.0 -3.88251e-19 0.17237 -2.4816 -0.0258955 -0.00786746 -1.0571 -0.0680521 -0.522458 3.53839 0.132387 2.03217e-16 0.0 3.88251e-19 -0.875843 -4.26242 0.0710579 0.00283233 2.1685 0.0189685 0.527716 2.09369 -0.103295
-79.9719 83.4727 -145.056 0.5205 42.1227 5.1512 -1.97675 2.50366 -1.93279 2.01929 -1.125 -0.530271 -0.650728 2.2961 -0.558233 0.839996 -6.33317 -0.859022 -0.0 0.0 0.0 -0.0 0.0 0.0 -5.46008e-16 7.69136e-17 2.1367e-14 20.9359 2.25384 1.09099 -4.1787 -1.88989 6.5371 0.000212947 -0.624654 -0.0877768 -1.51349e-10 6.04097e-11 2.41119e-10 -2.62481e-10 1.04859e-10 4.17466e-10 -1.51341e-10 6.04098e-11 2.41103e-10 7.73091 5.47488 0.417314 -1.51349e-10 6.04084e-11 2.41119e-10 2.90554 0.965183 0.102902 -1.51345e-10 6.04084e-11 2.41117e-10 10.2786 0.731801 0.0259123 -1.51352e-10 6.0408e-11 2.41126e-10 2.22167 -0.733487 -0.20892 -5.45038e-16 8.09903e-17 2.10386e-14 -23.0549 0.0449726 -1.10893 6.7949 -3.85973 -9.6432 -0.126472 7.90496 -1.0732 -3.06585e-10 -2.77662e-10 -2.18182e-10 -5.3442e-10 -4.83394e-10 -3.68276e-10 -3.0659e-10 -2.7766e-10 -2.18176e-10 -7.73091 5.47488 -0.417314 -3.06583e-10 -2.77662e-10 -2.18182e-10 -2.90554 0.965183 -0.102902 -3.06592e-10 -2.77662e-10 -2.18185e-10 -10.2786 0.731801 -0.0259123 -3.0658e-10 -2.77662e-10 -2.18199e-10 -2.22167 -0.733487 0.20892 -2.03217e-16 0.0 -3.88251e-19 -0.906073 -8.64297 -1.25856 -7.20854e-05 6.00657 0.058289 -0.617318 1.51453 -1.56058 2.03217e-16 0.0 3.88251e-19 -1.3042 -3.52804 0.497295 -0.0146112 4.82707 -0.093023 0.442718 -2.85131 -0.836233
-80.3984 83.502 -145.676 0.7341 42.0823 5.4523 -3.39369 5.14002 -4.00003 4.27789 -2.30297 -1.07563 -1.29637 4.71867 -1.15626 1.53752 -13.0464 -1.80718 -0.0 0.0 0.0 -0.0 0.0 0.0 -5.14517e-15 -2.1883e-15 4.24343e-14 42.9675 4.49484 2.2191 -8.11 -3.79079 13.4395 -0.00207752 -1.34659 -0.189265 -4.09414e-10 1.55821e-10 5.03657e-10 -7.09452e-10 2.70147e-10 8.72162e-10 -4.09406e-10 1.5582e-10 5.0364e-10 7.73091 5.47488 0.417314 -4.09414e-10 1.55818e-10 5.03656e-10 2.90554 0.965183 0.102902 -4.09411e-10 1.55818e-10 5.03657e-10 10.2786 0.731801 0.0259123 -4.09419e-10 1.55818e-10 5.03665e-10 2.22167 -0.733487 -0.20892 -5.03672e-15 -2.1787e-15 4.21796e-14 -47.4252 0.0677687 -2.27793 12.5522 -7.5435 -19.9346 0.0742185 16.2746 -2.28094 -7.21147e-10 -5.92264e-10 -4.80994e-10 -1.25636e-09 -1.03143e-09 -8.12344e-10 -7.21151e-10 -5.92261e-10 -4.8099e-10 -7.73091 5.47488 -0.417314 -7.21143e-10 -5.92264e-10 -4.80997e-10 -2.90554 0.965183 -0.102902 -7.21154e-10 -5.92264e-10 -4.80998e-10 -10.2786 0.731801 -0.0259123 -7.21142e-10 -5.92263e-10 -4.81008e-10 -2.22167 -0.733487 0.20892 -2.03217e-16 0.0 -3.88251e-19 -2.33923 -15.1423 -2.6221 -0.0264753 13.5076 0.196975 -0.847432 -0.595667 -3.35862 2.03217e-16 0.0 3.88251e-19 -1.77062 -2.72536 0.938171 -0.0217496 7.64442 -0.213091 0.215567 -8.09526 -1.61505
-80.8418 83.558 -146.236 0.7236 41.9629 5.578 -4.49877 7.48113 -5.8161 6.25316 -3.36761 -1.54899 -1.81715 6.88566 -1.68552 1.92263 -18.9819 -2.70874 -0.0 0.0 0.0 -0.0 0.0 0.0 -1.27677e-14 2.18316e-16 6.38029e-14 62.5489 6.75169 3.29329 -11.2657 -5.37507 19.6907 -0.00510555 -1.87394 -0.263456 -5.62363e-10 1.8113e-10 7.24292e-10 -9.74478e-10 3.14412e-10 1.25404e-09 -5.62353e-10 1.81127e-10 7.24275e-10 7.73091 5.47488 0.417314 -5.62362e-10 1.81126e-10 7.24292e-10 2.90554 0.965183 0.102902 -5.6236e-10 1.81125e-10 7.24294e-10 10.2786 0.731801 0.0259123 -5.62369e-10 1.81126e-10 7.24301e-10 2.22167 -0.733487 -0.20892 -1.25712e-14 2.32876e-16 6.36126e-14 -69.1596 0.134716 -3.32681 16.6196 -10.2686 -29.3787 0.57787 23.68 -3.48253 -1.02807e-09 -8.33088e-10 -6.53618e-10 -1.79034e-09 -1.45035e-09 -1.10322e-09 -1.02807e-09 -8.33085e-10 -6.53617e-10 -7.73091 5.47488 -0.417314 -1.02806e-09 -8.33089e-10 -6.53623e-10 -2.90554 0.965183 -0.102902 -1.02807e-09 -8.33088e-10 -6.53622e-10 -10.2786 0.731801 -0.0259123 -1.02806e-09 -8.33086e-10 -6.5363e-10 -2.22167 -0.733487 0.20892 -2.03217e-16 0.0 -3.88251e-19 -3.90741 -20.9266 -3.94141 -0.0823407 20.1336 0.330164 -1.16548 -2.52211 -4.94919 2.03217e-16 0.0 3.88251e-19 -2.19372 -2.05912 1.3482 -0.0178795 10.1441 -0.321007 -0.114689 -12.7318 -2.35713
-81.2538 83.6424 -146.759 1.0625 41.7719 5.9131 -5.19243 9.11841 -6.9612 7.56316 -4.15 -1.84011 -2.12291 8.41628 -2.0324 1.96703 -22.9905 -3.3649 -0.0 0.0 0.0 -0.0 0.0 0.0 -2.79488e-14 1.43045e-14 8.59247e-14 76.1473 9.05463 4.22133 -13.3432 -6.43644 24.2417 -0.0044992 -1.91487 -0.269219 -4.52517e-10 3.11821e-11 8.40172e-10 -7.84643e-10 5.61209e-11 1.45388e-09 -4.52507e-10 3.11778e-11 8.40156e-10 7.73091 5.47488 0.417314 -4.52515e-10 3.11778e-11 8.40172e-10 2.90554 0.965183 0.102902 -4.52514e-10 3.1176e-11 8.40175e-10 10.2786 0.731801 0.0259123 -4.52524e-10 3.11786e-11 8.40182e-10 2.22167 -0.733487 -0.20892 -2.77128e-14 1.43226e-14 8.57756e-14 -84.3032 0.311972 -4.07541 18.9952 -11.7982 -36.293 1.13023 28.7088 -4.41452 -1.06588e-09 -8.89469e-10 -6.00772e-10 -1.8544e-09 -1.54645e-09 -1.01113e-09 -1.06589e-09 -8.89466e-10 -6.00772e-10 -7.73091 5.47488 -0.417314 -1.06588e-09 -8.8947e-10 -6.00778e-10 -2.90554 0.965183 -0.102902 -1.06589e-09 -8.89469e-10 -6.00776e-10 -10.2786 0.731801 -0.0259123 -1.06588e-09 -8.89467e-10 -6.00781e-10 -2.22167 -0.733487 0.20892 -2.03217e-16 0.0 -3.88251e-19 -5.20324 -24.9595 -4.95301 -0.139908 24.5721 0.42962 -1.45502 -4.00195 -6.01393 2.03217e-16 0.0 3.88251e-19 -2.48447 -1.73396 1.68199 -0.00930299 11.8495 -0.394914 -0.432287 -15.8584 -2.95288
-81.6554 83.7759 -147.282 1.6144 41.5554 6.4604 -5.48915 9.77656 -7.14143 7.95611 -4.54816 -1.8751 -2.16842 9.07688 -2.11885 1.7574 -24.3152 -3.58591 -0.0 0.0 0.0 -0.0 0.0 0.0 -5.52565e-14 4.77609e-14 8.56917e-14 81.4306 11.5085 4.92715 -14.2839 -6.95961 26.391 0.00230544 -1.13687 -0.159787 2.3554e-10 -3.43253e-10 7.6708e-10 4.05848e-10 -5.88562e-10 1.32484e-09 2.35548e-10 -3.4326e-10 7.67069e-10 7.73091 5.47488 0.417314 2.35542e-10 -3.43258e-10 7.67083e-10 2.90554 0.965183 0.102902 2.35543e-10 -3.43261e-10 7.67084e-10 10.2786 0.731801 0.0259123 2.35533e-10 -3.43256e-10 7.6709e-10 2.22167 -0.733487 -0.20892 -5.50556e-14 4.77811e-14 8.55512e-14 -90.2098 0.631323 -4.42741 20.0042 -12.4957 -39.5162 1.37286 30.4258 -4.76451 -5.14577e-10 -4.99821e-10 -1.27666e-10 -8.91579e-10 -8.63815e-10 -2.07336e-10 -5.1458e-10 -4.99818e-10 -1.27667e-10 -7.73091 5.47488 -0.417314 -5.14573e-10 -4.99823e-10 -1.27674e-10 -2.90554 0.965183 -0.102902 -5.14583e-10 -4.99821e-10 -1.2767e-10 -10.2786 0.731801 -0.0259123 -5.14573e-10 -4.99819e-10 -1.27676e-10 -2.22167 -0.733487 0.20892 -2.03217e-16 0.0 -3.88251e-19 -5.83317 -26.5678 -5.37022 -0.16218 25.7903 0.462067 -1.57513 -4.84531 -6.25514 2.03217e-16 0.0 3.88251e-19 -2.58444 -1.90582 1.94038 -0.0044531 12.4171 -0.417661 -0.616493 -16.8676 -3.34212
-82.0688 83.9015 -147.802 1.7739 41.3785 6.7635 -5.53479 9.74102 -6.62444 7.69882 -4.67157 -1.72663 -2.03779 9.11557 -2.01712 1.41545 -23.7262 -3.46954 -0.0 0.0 0.0 -0.0 0.0 0.0 -9.11525e-14 9.49093e-14 7.06058e-14 80.773 14.066 5.48195 -14.5008 -7.15844 26.8114 0.00632117 0.219538 0.0308263 1.32659e-09 -8.79031e-10 5.61024e-10 2.29377e-09 -1.51101e-09 9.64422e-10 1.3266e-09 -8.7904e-10 5.61018e-10 7.73091 5.47488 0.417314 1.32659e-09 -8.79035e-10 5.6103e-10 2.90554 0.965183 0.102902 1.32659e-09 -8.79041e-10 5.61028e-10 10.2786 0.731801 0.0259123 1.32658e-09 -8.79033e-10 5.61034e-10 2.22167 -0.733487 -0.20892 -9.10397e-14 9.49306e-14 7.04505e-14 -89.5204 1.05288 -4.49516 20.2536 -12.8585 -40.063 1.29966 29.7855 -4.63889 4.47418e-10 1.99477e-10 6.40643e-10 7.87152e-10 3.59497e-10 1.09646e-09 4.47413e-10 1.99477e-10 6.40643e-10 -7.73091 5.47488 -0.417314 4.4742e-10 1.99474e-10 6.40635e-10 -2.90554 0.965183 -0.102902 4.47412e-10 1.99475e-10 6.40641e-10 -10.2786 0.731801 -0.0259123 4.4742e-10 1.99476e-10 6.40633e-10 -2.22167 -0.733487 0.20892 -2.03217e-16 0.0 -3.88251e-19 -5.90539 -26.4525 -5.31879 -0.151205 24.7159 0.442455 -1.54329 -5.23884 -5.90799 2.03217e-16 0.0 3.88251e-19 -2.54297 -2.43162 2.1437 -0.00444876 12.1732 -0.403323 -0.666919 -16.367 -3.56781
-82.4908 83.9953 -148.245 1.45 41.276 6.6264 -5.44973 9.45325 -5.82256 7.18931 -4.66871 -1.50378 -1.84031 8.87482 -1.83664 1.00413 -22.3693 -3.21422 -0.0 0.0 0.0 -0.0 0.0 0.0 -1.28012e-13 1.42705e-13 8.70335e-14 77.7009 16.5296 6.01175 -14.424 -7.22407 26.5033 0.000893964 1.58659 0.222992 2.24236e-09 -1.51274e-09 3.69483e-10 3.8785e-09 -2.60406e-09 6.29869e-10 2.24236e-09 -1.51275e-09 3.69483e-10 7.73091 5.47488 0.417314 2.24236e-09 -1.51274e-09 3.69492e-10 2.90554 0.965183 0.102902 2.24236e-09 -1.51275e-09 3.69486e-10 10.2786 0.731801 0.0259123 2.24235e-09 -1.51274e-09 3.69493e-10 2.22167 -0.733487 -0.20892 -1.27998e-13 1.42726e-13 8.68541e-14 -86.211 1.53523 -4.41154 20.203 -13.0926 -39.4634 1.11226 28.2184 -4.33329 1.23389e-09 7.2214e-10 1.35967e-09 2.16185e-09 1.27621e-09 2.31939e-09 1.23388e-09 7.22139e-10 1.35968e-09 -7.73091 5.47488 -0.417314 1.23388e-09 7.22137e-10 1.35967e-09 -2.90554 0.965183 -0.102902 1.23388e-09 7.22137e-10 1.35967e-09 -10.2786 0.731801 -0.0259123 1.23389e-09 7.22138e-10 1.35966e-09 -2.22167 -0.733487 0.20892 -2.03217e-16 0.0 -3.88251e-19 -5.71766 -25.6464 -5.11101 -0.130797 22.9776 0.408541 -1.47399 -5.48811 -5.45004 2.03217e-16 0.0 3.88251e-19 -2.43346 -3.06746 2.27554 -0.00604308 11.6465 -0.376144 -0.634317 -15.2791 -3.66193
-82.9011 84.0792 -148.619 1.0731 41.2187 6.3569 -5.36593 9.35798 -5.14645 6.82555 -4.68815 -1.31568 -1.68585 8.69719 -1.6869 0.596255 -21.3906 -3.01288 -0.0 0.0 0.0 -0.0 0.0 0.0 -1.58212e-13 1.78102e-13 1.81341e-13 75.7264 18.6998 6.64206 -14.454 -7.32655 26.4718 -0.0070492 2.39653 0.337009 2.40457e-09 -2.18096e-09 3.39938e-10 4.15942e-09 -3.76056e-09 5.78436e-10 2.40458e-09 -2.18098e-09 3.39941e-10 7.73091 5.47488 0.417314 2.40458e-09 -2.18097e-09 3.39947e-10 2.90554 0.965183 0.102902 2.40458e-09 -2.18098e-09 3.3994e-10 10.2786 0.731801 0.0259123 2.40457e-09 -2.18096e-09 3.39947e-10 2.22167 -0.733487 -0.20892 -1.58264e-13 1.7812e-13 1.81143e-13 -84.2544 2.0367 -4.30935 20.2382 -13.3143 -39.2614 0.998873 27.1559 -4.13412 1.25861e-09 5.81887e-10 1.68494e-09 2.21258e-09 1.03904e-09 2.88057e-09 1.2586e-09 5.81885e-10 1.68495e-09 -7.73091 5.47488 -0.417314 1.25861e-09 5.81884e-10 1.68494e-09 -2.90554 0.965183 -0.102902 1.2586e-09 5.81884e-10 1.68494e-09 -10.2786 0.731801 -0.0259123 1.25861e-09 5.81884e-10 1.68493e-09 -2.22167 -0.733487 0.20892 -2.03217e-16 0.0 -3.88251e-19 -5.57119 -25.182 -5.06161 -0.120908 22.204 0.395771 -1.4906 -5.89861 -5.36067 2.03217e-16 0.0 3.88251e-19 -2.33353 -3.56962 2.31901 -0.00659111 11.3658 -0.360204 -0.587706 -14.525 -3.66042
